<?xml version="1.0" encoding="UTF-8"?>
<!-- Generator: Adobe Illustrator 14.0.0, SVG Export Plug-In . SVG Version: 6.00 Build 43363)  -->
<!DOCTYPE svg PUBLIC "-//W3C//DTD SVG 1.1//EN" "http://www.w3.org/Graphics/SVG/1.1/DTD/svg11.dtd">
<svg version="1.1" id="Layer_1" xmlns="http://www.w3.org/2000/svg" xmlns:xlink="http://www.w3.org/1999/xlink" x="0px" y="0px" width="410.996px" height="125.809px" viewBox="0 0 410.996 125.809" enable-background="new 0 0 410.996 125.809" xml:space="preserve">
<g>
	<path fill-rule="evenodd" clip-rule="evenodd" fill="#034EA2" d="M113.109,3H75.405L0,124.809h33.836l10.634-19.334h38.669v19.334   h29.97V3L113.109,3z M58.971,80.342l26.102-46.405l-0.966,46.405H58.971L58.971,80.342z"/>
	<polygon fill-rule="evenodd" clip-rule="evenodd" fill="#034EA2" points="376.06,3 406.996,3 406.996,124.809 376.06,124.809    376.06,3  "/>
	<polygon fill-rule="evenodd" clip-rule="evenodd" fill="#034EA2" points="331.593,3 362.526,3 362.526,124.809 331.593,124.809    331.593,3  "/>
	<path fill-rule="evenodd" clip-rule="evenodd" fill="#034EA2" d="M185.615,46.504h31.9V24.269c0,0,0.969-21.269-20.3-21.269   c-22.235,0-51.238,0-55.104,0c-3.867,0-18.368,3.867-18.368,20.302c0,0,0,16.435,0,18.368c0,1.933,0,8.7,10.633,15.468   c10.635,6.767,47.372,29.003,47.372,29.003s4.833,1.933,4.833,7.731c0,5.804-2.9,5.804-6.768,5.804c-2.899,0-20.302,0-20.302,0   s-4.834,0.964-4.834-4.835c0-5.804,0-14.499,0-14.499h-30.935v24.164c0,0-0.967,20.303,22.234,20.303s47.37,0,50.271,0   s20.301-0.964,20.301-19.334V86.141c0,0,1.936-9.67-9.667-17.401l-49.303-29.003c0,0-3.867-2.9-3.867-5.8   c0-1.936,0.966-6.768,5.8-6.768h21.269c0,0,4.835,0,4.835,5.8C185.615,39.736,185.615,46.504,185.615,46.504L185.615,46.504z"/>
	<path fill-rule="evenodd" clip-rule="evenodd" fill="#034EA2" d="M257.152,80.342c0,0,0,8.695,0,14.499   c0,6.768,3.866,5.799,3.866,5.799s20.303,0,24.169,0c2.901,0,3.868,0,3.868-6.768V81.306h30.935v24.169   c0,18.37-17.401,19.334-20.301,19.334s-27.068,0-50.271,0c-23.203,0-22.234-20.303-22.234-20.303V23.302   C227.185,6.867,241.685,3,245.553,3c3.866,0,32.867,0,54.137,0s21.27,21.269,21.27,21.269v22.235h-31.903c0,0,0-6.768,0-12.567   c0-5.801-4.835-6.768-4.835-6.768h-21.267c-5.802,0-5.802,4.832-5.802,7.734V80.342L257.152,80.342z"/>
</g>
</svg>